<svg id="logo_2" data-name="logo 2" xmlns="http://www.w3.org/2000/svg" viewBox="0 0 364.09 142.27"><defs><style>.cls-1{font-size:23.79px;fill:#fffdfe;font-family:Seravek;}.cls-1,.cls-3,.cls-4,.cls-5,.cls-6{stroke:#fff;}.cls-1,.cls-3,.cls-4{stroke-miterlimit:10;}.cls-2{letter-spacing:-0.03em;}.cls-3{font-size:53.52px;fill:#007f1a;font-family:Bitter-BlackItalic, Bitter;font-weight:800;font-style:italic;}.cls-4,.cls-5,.cls-6,.cls-7{fill:none;}.cls-5,.cls-6,.cls-7{stroke-linecap:round;stroke-linejoin:round;}.cls-6{stroke-width:0.5px;}.cls-7{stroke:#020202;}</style></defs><title>logo2</title><text class="cls-1" transform="translate(110 131.4)">B R E<tspan class="cls-2" x="49.79" y="0"> </tspan><tspan x="54.19" y="0">W E R</tspan><tspan class="cls-2" x="112.9" y="0"> </tspan><tspan x="117.3" y="0">Y</tspan></text><text class="cls-3" transform="translate(14.5 103.45)">GRAY RID</text><text class="cls-3" transform="translate(274.63 102.7)">GE</text><circle class="cls-4" cx="4.28" cy="40.47" r="1.9"/><circle class="cls-4" cx="2.64" cy="36.06" r="1.9"/><circle class="cls-4" cx="2.78" cy="31.2" r="2.28"/><circle class="cls-4" cx="5.12" cy="25.83" r="2.38"/><circle class="cls-4" cx="10.03" cy="22.4" r="2.53"/><circle class="cls-4" cx="16.9" cy="20.86" r="2.75"/><circle class="cls-4" cx="22.08" cy="16.83" r="2.48"/><circle class="cls-4" cx="28.6" cy="17.12" r="2.51"/><circle class="cls-4" cx="33.5" cy="19.4" r="2.32"/><circle class="cls-4" cx="38.32" cy="21.56" r="2.19"/><circle class="cls-4" cx="57.77" cy="21.35" r="1.94"/><circle class="cls-4" cx="62.31" cy="18.97" r="2.06"/><circle class="cls-4" cx="67.18" cy="16.76" r="2.49"/><circle class="cls-4" cx="73.95" cy="16.41" r="2.89"/><circle class="cls-4" cx="79.73" cy="20.53" r="3.05"/><circle class="cls-4" cx="85.96" cy="21.77" r="3.14"/><circle class="cls-4" cx="91.36" cy="25.01" r="2.41"/><circle class="cls-4" cx="93.91" cy="30.18" r="2.13"/><circle class="cls-4" cx="93.47" cy="35.28" r="2.33"/><circle class="cls-4" cx="92.2" cy="39.49" r="1.76"/><circle class="cls-4" cx="80.26" cy="27.72" r="3.04"/><circle class="cls-5" cx="78.72" cy="33.54" r="2.31"/><circle class="cls-4" cx="15.74" cy="28.12" r="3.04"/><circle class="cls-4" cx="17.38" cy="34.13" r="2.36"/><circle class="cls-4" cx="48.29" cy="20.33" r="2.71"/><circle class="cls-4" cx="48.3" cy="25.5" r="2.2"/><circle class="cls-5" cx="48.09" cy="29.16" r="1.47"/><circle class="cls-5" cx="37.55" cy="59.01" r="2.28"/><circle class="cls-5" cx="59.37" cy="58.66" r="2.58"/><ellipse class="cls-5" cx="541.68" cy="388.41" rx="1.87" ry="2.88" transform="translate(-541.11 -294.07) rotate(-3.36)"/><ellipse class="cls-5" cx="593.5" cy="387.61" rx="1.87" ry="2.88" transform="translate(-540.98 -291.03) rotate(-3.36)"/><polygon class="cls-5" points="44.79 61.4 44.79 55.67 51.75 55.79 51.58 61.22 44.79 61.4"/><polygon class="cls-4" points="28.87 62.92 27.25 60.01 29.05 57.52 30.91 60.09 28.87 62.92"/><polygon class="cls-4" points="67.6 62.74 65.84 59.58 67.29 57.21 69.3 59.88 67.6 62.74"/><polyline class="cls-6" points="46.22 59.97 50.29 59.84 50.34 57.25"/><path class="cls-4" d="M536.86,399.46s0-14.37-.41-16.72-3.89-9.48-11.19-10.57l1.86-1.76" transform="translate(-519.25 -326.53)"/><path class="cls-5" d="M598.06,381.77a77.15,77.15,0,0,0-30.72-4.69c-17.56.85-22.87,1.57-30.5,5.43l.27,2.95s10.68-5.85,30.5-5.23,20.7,1.4,30,4.43Z" transform="translate(-519.25 -326.53)"/><path class="cls-4" d="M598.06,381.77s3.61-9.74,10.43-10.64c0,0-4-3.34-6-3.63a2.26,2.26,0,0,0-2.45,1l-.25,1.62s-2.25-.29-3,1.14a19,19,0,0,0-1.27,3.61,2.29,2.29,0,0,0,1.25,2.24,1.66,1.66,0,0,1-2,.86c-1.51-.38-1.57-1.12-1.57-1.12s-2.23.7-2.64.28a8.38,8.38,0,0,1-1-1.78l1.76-.15a5.38,5.38,0,0,0,3.24-3.82c.68-3-1.74-3.36-1.74-3.36s3.13-3.25.57-4.93a7,7,0,0,0-5.13-1s-2,.53-2.71,4.24c0,0-3.34-1.3-4.31,1.26a10,10,0,0,0-.79,4.14,3.28,3.28,0,0,0,2.55,2.34c2,.22-1.13,1-1.13,1a5.87,5.87,0,0,1-3.62-1.36s-4,2.25-5.67-.57c0,0,1.87.27,3.69-1.93s.23-6,.23-6a3.78,3.78,0,0,0-4-1.74s.16-2.17-.72-3.23a9.86,9.86,0,0,0-3.29-1.93s-3.8-.63-5.48,2a3.93,3.93,0,0,0-.69,2.94,4.24,4.24,0,0,0-4.4,4.6c.1,4.71,2.83,5.1,2.83,5.1l1.4.18s.16,1.69-2.4,1.69-3-1-3-1-2.68,2.69-5,.9a4,4,0,0,0,2.1-1.58,6.14,6.14,0,0,0,.18-4.4c-.55-1.3-1.37-2.46-2.48-2.53a5,5,0,0,0-2.41.78s0-4.47-3.27-4.68a6.14,6.14,0,0,0-5.07,2.14,3.23,3.23,0,0,0,1,3.79s-2.5,2.23-.92,4.93a5,5,0,0,0,4.16,2.63s.55,1.19-.27,1.65-2.87,0-2.87,0a2,2,0,0,1-2.59,1l-1.13-.74s2.19-1.1,1-3.89-2.79-3-2.79-3l-1.26,0s.89-3.94-3.86-2.66a7.65,7.65,0,0,0-4.41,3.38s4.5,1.85,6.29,4.31,3.56,4.85,3.72,6.7" transform="translate(-519.25 -326.53)"/><path class="cls-4" d="M540.51,366s-4.1,2.16-5.37,3.78" transform="translate(-519.25 -326.53)"/><path class="cls-4" d="M547,362.61s10.9-4.42,15.69-4.07l.68.08.21-9.13s-2.33-2.42-2.42-3.92a26.78,26.78,0,0,1,.08-3.26s1.37-3.39,4-3.93a9.06,9.06,0,0,1,4-.15,5.57,5.57,0,0,1,3.55,3,9.23,9.23,0,0,1,.6,4.09,10,10,0,0,1-2.31,3.65l.22,9.41.4,0a41.34,41.34,0,0,1,15.4,3.65l.72.26.76-.25s3.06-8.72,2-10.51a3.28,3.28,0,0,0-2.49-1.83l-2.68.82-8.13,2.43s-2.54.38-3.91.47a9.5,9.5,0,0,1-1.88,0" transform="translate(-519.25 -326.53)"/><path class="cls-4" d="M590.53,355s-14.13,1.77-19.32,0" transform="translate(-519.25 -326.53)"/><path class="cls-4" d="M590.24,351.29s-12.68,3.28-16.85,2.09" transform="translate(-519.25 -326.53)"/><path class="cls-4" d="M563.05,355.06s-12,2.27-18.68.19" transform="translate(-519.25 -326.53)"/><path class="cls-4" d="M544.59,351.67a40.38,40.38,0,0,0,11.78,2.27c5.93.08,7-.44,7-.44" transform="translate(-519.25 -326.53)"/><path class="cls-4" d="M563.39,353.5s-6.5-.34-10.51-1.87a19.5,19.5,0,0,0-6.66-1.46,1.74,1.74,0,0,0-2.08,1.43,12.49,12.49,0,0,0,.35,4.7l1.58,4.89.48,1.41" transform="translate(-519.25 -326.53)"/><path class="cls-4" d="M541,364.13a60,60,0,0,1-2.33-9.16,28,28,0,0,1-.14-5.1,5.1,5.1,0,0,1,4.85-3.92,12.81,12.81,0,0,1,7.36,1.62s5.44,2.52,7,2.94a23.86,23.86,0,0,0,5,.88l.87-.08" transform="translate(-519.25 -326.53)"/><path class="cls-4" d="M561.6,346.19s5.82-4.58,11.22-.45" transform="translate(-519.25 -326.53)"/><path class="cls-4" d="M561.24,342.78s3.31-1.65,3.92-1.4l.11-3" transform="translate(-519.25 -326.53)"/><path class="cls-4" d="M573.1,342.64a18.81,18.81,0,0,0-3.71-1.28l-.16-3.13" transform="translate(-519.25 -326.53)"/><path class="cls-4" d="M565.61,335.48h-1s.26,1.5-1.52,1.6a1.31,1.31,0,0,1-1.44-1.66s-1.74-.08-1.39-1.52,1.41-1.5,1.41-1.5a1.43,1.43,0,0,1,1.49-1.4c1.4.07,1.34.55,1.34.55l0,.67,1,.06.17-.8-.72-.19s-1.17-.74-.69-1.71a1.35,1.35,0,0,1,1.3-1.1s.2-1.58,1.5-1.45,1.42.86,1.42.86l.07.37s1.61.35,1.44,1.49c0,0,0,.86-1.51,1.44l0,1.35,1.22,0a1.77,1.77,0,0,1,1.51-1.35,1.12,1.12,0,0,1,1.28,1.12s1.79.16,1.7,1.71a1.64,1.64,0,0,1-1.43,1.66,1.69,1.69,0,0,1-1.52,1.43c-1.32.08-1.6-1.7-1.6-1.7l-1.06,0,.08,2.77-.59,0-2.26.15s-.06-.68-.06-1.35A8.64,8.64,0,0,0,565.61,335.48Z" transform="translate(-519.25 -326.53)"/><polygon class="cls-5" points="46.03 44.1 50.17 44.06 50.23 38.5 46.21 38.52 46.03 44.1"/><path class="cls-4" d="M594.32,364.73s4.07,1.56,5.74,3.06" transform="translate(-519.25 -326.53)"/><polygon class="cls-4" points="67.77 47.57 67.35 43.78 69.94 41.28 70.74 44.87 67.77 47.57"/><polygon class="cls-4" points="28.55 47.49 29 44.44 26.64 42.12 25.93 45.15 28.55 47.49"/><polyline class="cls-6" points="47.58 42.74 49.13 42.76 49.08 40.14"/><path class="cls-7" d="M772.21,66" transform="translate(-519.25 -326.53)"/></svg>